<?xml version="1.0" encoding="iso-8859-1"?>
<!-- Generator: Adobe Illustrator 16.0.0, SVG Export Plug-In . SVG Version: 6.00 Build 0)  -->
<!DOCTYPE svg PUBLIC "-//W3C//DTD SVG 1.1//EN" "http://www.w3.org/Graphics/SVG/1.1/DTD/svg11.dtd">
<svg version="1.1" id="Capa_1" xmlns="http://www.w3.org/2000/svg" xmlns:xlink="http://www.w3.org/1999/xlink" x="0px" y="0px"
	 width="299.771px" height="299.771px" viewBox="0 0 299.771 299.771" style="enable-background:new 0 0 299.771 299.771;"
	 xml:space="preserve">
<g>
	<path d="M0.003,0v299.771h299.766V0H0.003z M268.405,171.923h-96.989v96.984c0,12.178-9.86,22.037-22.038,22.037
		c-12.174,0-22.043-9.859-22.043-22.037v-96.984h-96.98c-12.175,0-22.044-9.865-22.044-22.037c0-12.175,9.863-22.043,22.044-22.043
		h96.98V30.855c0-12.174,9.869-22.037,22.043-22.037c12.178,0,22.038,9.863,22.038,22.037v96.987h96.989
		c12.166,0,22.038,9.869,22.038,22.043C290.443,162.058,280.577,171.923,268.405,171.923z"/>
</g>
<g>
</g>
<g>
</g>
<g>
</g>
<g>
</g>
<g>
</g>
<g>
</g>
<g>
</g>
<g>
</g>
<g>
</g>
<g>
</g>
<g>
</g>
<g>
</g>
<g>
</g>
<g>
</g>
<g>
</g>
</svg>
